<svg xmlns="http://www.w3.org/2000/svg" viewBox="0 0 23.99 16.77"><defs><style>.cls-1{fill:#fff;}</style></defs><title>youtube-icon</title><g id="Layer_2" data-name="Layer 2"><g id="Layer_1-2" data-name="Layer 1"><path class="cls-1" d="M23.49,2.59A3,3,0,0,0,21.4.5C19.53,0,12,0,12,0S4.5,0,2.61.5A3,3,0,0,0,.52,2.59,31.36,31.36,0,0,0,0,8.39a31.25,31.25,0,0,0,.52,5.79,3.05,3.05,0,0,0,2.09,2.09c1.87.5,9.4.5,9.4.5s7.5,0,9.39-.5a3,3,0,0,0,2.09-2.09A31.23,31.23,0,0,0,24,8.39,31.34,31.34,0,0,0,23.49,2.59ZM9.6,12V4.79l6.27,3.6Z"/></g></g></svg>