<svg xmlns="http://www.w3.org/2000/svg" viewBox="0 0 2499.99 1755.79"><defs><style>.cls-1{fill:#fff;}</style></defs><title>youtube-logo</title><g id="Layer_2" data-name="Layer 2"><g id="Layer_1-2" data-name="Layer 1"><path class="cls-1" d="M1035.38,1753.62c-476.11-8.77-638.72-16.65-738.68-37.25-67.62-13.68-126.39-44.06-169.48-88.12-33.3-33.35-59.79-84.23-80.33-154.83-17.63-58.81-24.49-107.74-34.28-227.27-15-269.76-18.55-490.31,0-736.73C27.92,373.33,35.34,211.78,137,117.53,185,73.42,240.86,45,303.57,33.3,401.53,14.7,818.87,0,1250.92,0c431.08,0,849.35,14.7,947.4,33.3,78.34,14.71,151.81,58.77,194.95,115.59,92.76,145.92,94.39,327.36,103.8,469.29,3.9,67.63,3.9,451.63,0,519.25-14.65,224.3-26.44,303.66-59.74,386-20.59,51.94-38.17,79.36-68.6,109.74a328.55,328.55,0,0,1-174.39,89.14c-412,31-761.88,37.71-1159,31.36Zm630.94-901.3c-229.22-122.5-448.7-236.09-673-353.66v703.43c236.08-128.34,485-245.92,674-350.74l-1,1Z"/></g></g></svg>